# xmcd CD database file
#
# Track frame offsets:
#	150
#	15738
#	32575
#	69448
#	84861
#	116044
#	133552
#	155592
#	172250
#	189945
#
# Disc length: 2901 seconds
#
# Revision: 0
# Processed by: cddbd v1.5.2PL0 Copyright (c) Steve Scherf et al.
# Submitted via: CDex 1.51
#
DISCID=7b0b530a
DTITLE=Akki Haak Band - Dances Gods and Monsters
DYEAR=1997
DGENRE=Jazz
TTITLE0=Dance of Dionysos
TTITLE1=Ha, voor A
TTITLE2=Grmf
TTITLE3=Frankenstein meets Elisabeth
TTITLE4=Hee, voor E
TTITLE5=Liubov
TTITLE6=Froggy Greene Dance
TTITLE7=Bigfoot
TTITLE8=Two Dragons
TTITLE9=Frankenstein meets the girls
EXTD=YEAR: 1997
EXTT0=
EXTT1=
EXTT2=
EXTT3=
EXTT4=
EXTT5=
EXTT6=
EXTT7=
EXTT8=
EXTT9=
PLAYORDER=
